# xmcd
#
# Track frame offsets: 
#        150
#        21664
#        40263
#        56636
#        80169
#        98492
#        119712
#        143644
#        161839
#        178510
#        197248
#        220685
#
# Disc length: 3086 seconds
#
# Revision: 0
# Processed by: cddbd v1.5.2PL0 Copyright (c) Steve Scherf et al.
# Submitted via: ExactAudioCopyFreeDBPlugin 1.0
#
DISCID=af0c0c0c
DTITLE=Tank - Sex Love and Pain II (Clean)
DYEAR=2016
DGENRE=R&B
TTITLE0=SLP2
TTITLE1=You Don't Know (ft Wale)
TTITLE2=She With The Shit (ft Rich Homie Quan)
TTITLE3=#BDAY (ft Chris Brown, Siya, and Sage The Gemini)
TTITLE4=With Me
TTITLE5=Relationship Goals
TTITLE6=I Love Ya (ft Yo Gotti)
TTITLE7=So Cold
TTITLE8=Better For You
TTITLE9=Already In Love (ft Shawn Stockman)
TTITLE10=Him Her Them
TTITLE11=Bishop Cognac (Skit)
EXTD=
EXTT0=
EXTT1=
EXTT2=
EXTT3=
EXTT4=
EXTT5=
EXTT6=
EXTT7=
EXTT8=
EXTT9=
EXTT10=
EXTT11=
PLAYORDER=
